<svg width="132" height="155" viewBox="" fill="none" xmlns="http://www.w3.org/2000/svg">
<path fill-rule="evenodd" clip-rule="evenodd" d="M55.8786 0.155182C36.7617 2.30516 27.815 4.45512 19.8624 8.60152C9.92165 13.8229 3.34545 23.3442 1.20436 35.553C-0.401454 44.5369 -0.401454 126.85 1.20436 134.375C3.80425 146.814 12.1392 153.341 26.2092 153.879C35.8441 154.263 41.8086 152.42 47.4671 147.352C55.7256 139.904 57.102 131.841 54.6551 106.426L54.1963 101.435L65.8958 101.358C104.741 95.215 120.035 79.9277 130.5 53.9277C135.5 36.4277 131.446 14.2414 91 2.92773C84.8422 1.20528 61.7666 -0.535889 55.8786 0.155182ZM61.6136 31.637C69.7192 30.1013 71.4779 14.2068 64.0606 9.29259C61.1548 7.44975 57.4079 7.14261 54.5021 8.60152C44.8673 13.5158 51.0611 33.6334 61.6136 31.637ZM87.2302 34.6316C94.8005 30.7156 97.018 18.0461 90.9006 13.9765C84.7832 9.90686 77.213 13.8229 74.5366 22.346C71.4015 32.2513 78.5894 39.1619 87.2302 34.6316ZM47.6201 33.0959C47.5436 27.5674 43.8732 22.4996 38.1381 20.1193C28.8091 16.2032 22.1564 24.9567 26.8974 34.7852C32.1737 45.7654 47.8495 44.5369 47.6201 33.0959ZM97.7062 53.9814C109.329 55.5171 119.041 40.6976 111.394 33.0191C109.1 30.7156 108.335 30.4084 104.741 30.4084C90.6712 30.4852 84.248 52.1386 97.7062 53.9814ZM83.7892 48.1458C81.5716 43.8458 77.8247 40.0834 74.0778 38.5477C68.1133 36.0138 60.0843 37.2423 53.0493 41.7726C51.0611 43.078 47.4671 44.9208 45.1731 45.9958C36.7617 49.6815 32.6325 55.9779 33.0913 64.1938C33.6265 73.792 39.7439 79.3973 48.9965 78.8598C62.3783 78.0919 62.9136 78.1687 67.6545 81.4705C78.6658 89.0722 92.8888 82.4687 93.9593 69.1849C94.3417 64.4242 92.6594 60.1242 88.4537 55.0564C86.8479 53.1368 84.7832 50.0654 83.7892 48.1458ZM20.3212 52.369C22.6152 53.2904 21.0859 47.4547 18.2566 44.3833C15.9626 42.003 13.5156 42.0798 13.9744 44.6137C14.2038 45.6887 14.0509 46.5333 13.745 46.5333C12.598 46.5333 12.9803 50.1422 14.2038 51.1404C15.5038 52.2154 15.8096 58.8189 14.5862 58.8189C13.2862 58.8189 12.4451 62.1207 13.1333 64.501C13.5156 65.8063 13.4391 67.2652 12.9803 68.2634C12.3686 69.3384 12.3686 69.9527 13.0568 70.3366C13.5921 70.6438 13.745 71.5652 13.4391 72.5634C13.0568 73.792 13.2862 74.1759 14.2803 74.1759C15.2744 74.1759 15.3508 74.4063 14.5862 75.3277C14.0509 75.942 13.898 76.4794 14.2803 76.4794C14.6626 76.4794 14.4332 76.8634 13.8215 77.2473C12.8274 77.8616 12.8274 78.0919 13.745 78.7062C14.2803 79.0901 14.5097 79.7812 14.2803 80.2419C13.9744 80.7026 14.1274 81.0865 14.5097 81.0865C14.9685 81.0865 15.3508 81.624 15.3508 82.2383C15.3508 82.8526 14.892 83.3901 14.2803 83.3901C13.5156 83.3901 13.0568 84.3883 12.9039 86.2311C12.598 89.9168 13.8215 93.5257 15.1979 92.9882C15.7332 92.7579 15.9626 92.9882 15.7332 93.4489C15.4273 93.9096 14.7391 94.0632 14.1274 93.8328C12.9039 93.3721 11.9098 94.6007 12.9803 95.215C13.3627 95.4453 13.5156 96.3668 13.2862 97.2114C13.0568 98.056 13.2862 98.7471 13.745 98.7471C14.2803 98.7471 14.1274 99.7453 13.2862 101.435C12.2157 103.661 12.1392 104.352 13.0568 105.965C13.5921 107.04 13.8215 108.422 13.5156 109.113C13.2862 109.804 13.5921 110.879 14.2038 111.57C15.4273 112.722 15.3508 114.488 13.898 118.097C13.2862 119.863 13.2862 120.247 14.2038 120.247C15.045 120.247 15.1214 120.708 14.6626 121.936C14.2803 122.934 14.2803 124.393 14.6626 125.238C14.9685 126.083 15.2744 127.772 15.2744 129C15.3508 131.304 18.4095 134.836 20.3212 134.836C20.8565 134.836 21.4682 135.604 21.6212 136.449C21.7741 137.37 22.6917 138.445 23.6858 138.829C25.4445 139.443 25.4445 139.443 24.2211 137.6L22.9976 135.681L25.2916 136.525C26.5915 136.909 27.5856 137.6 27.5856 138.061C27.5856 138.445 27.8915 138.522 28.3503 138.291C28.7326 138.061 29.9561 138.445 31.0267 139.136C32.9383 140.365 33.0913 140.365 35.2324 138.291C36.5323 137.063 37.4499 135.681 37.4499 135.297C37.144 132.609 37.6793 129.461 38.3675 129.461C40.0498 129.461 41.2733 127.004 40.2027 125.852C39.3616 125.008 39.3616 124.47 40.3557 122.55C40.9674 121.245 41.2733 119.709 41.0439 119.095C40.8145 118.481 40.9674 117.943 41.2733 117.943C41.6556 117.943 41.9615 116.408 41.885 114.488C41.885 112.645 42.038 110.879 42.2674 110.572C42.5732 110.342 42.5732 109.651 42.3438 109.036C42.1144 108.422 42.2674 107.961 42.5732 107.961C42.9556 107.961 43.3379 106.81 43.4144 105.427C43.5673 104.122 44.1026 102.586 44.7908 102.126C45.4025 101.665 45.9378 100.897 45.9378 100.436C45.9378 99.9757 46.5495 98.5167 47.3907 97.1346C48.9965 94.4471 48.6906 91.8364 46.7025 91.8364C45.9378 91.8364 45.1731 91.2989 44.8673 90.6847C44.6379 89.9936 43.4908 89.5329 42.1144 89.5329C38.9793 89.5329 34.0089 86.9222 33.4736 84.9258C33.2442 84.0812 32.4795 83.3901 31.6384 83.3901C30.8737 83.3901 29.5738 82.8526 28.8091 82.2383C27.968 81.624 27.7386 81.0865 28.2738 81.0865C28.8091 81.0865 29.0385 80.7794 28.7326 80.3187C28.5032 79.9348 27.8915 79.7812 27.3562 79.9348C26.8209 80.1651 25.5975 79.6276 24.5269 78.783C23.4564 77.9384 23.074 77.2473 23.6858 77.2473C24.5269 77.2473 24.5269 77.017 23.6858 76.0187C23.1505 75.3277 22.6152 74.2527 22.5388 73.6384C22.3858 73.0241 21.7741 71.8724 21.0859 71.1045C20.0153 69.9527 20.0153 69.4152 20.7036 68.0331C21.8506 65.9599 20.8565 64.7313 18.0272 64.7313C16.8037 64.7313 16.3449 64.501 16.8802 64.1938C17.4155 63.8867 18.4095 63.8099 19.1742 63.9635C20.8565 64.4242 22.08 62.7349 20.7036 61.8903C19.9389 61.4296 19.9389 60.9689 21.0094 59.9707C21.6976 59.2028 22.1564 58.1278 21.927 57.5135C21.6976 56.8993 21.4682 56.0546 21.4682 55.6707C21.4682 55.3636 20.933 55.21 20.3212 55.4404C19.4801 55.8243 19.1742 55.3636 19.1742 53.9047C19.1742 52.5225 19.4801 52.0618 20.3212 52.369ZM19.633 44.2298C19.8624 44.2298 19.7859 43.8458 19.5565 43.4619C19.3271 43.0012 18.9448 42.6941 18.7154 42.6941C18.486 42.6941 18.5625 43.0012 18.7919 43.4619C19.0213 43.8458 19.4036 44.2298 19.633 44.2298ZM21.8506 48.069C22.08 48.069 22.2329 47.9154 22.2329 47.6851C22.2329 47.4547 22.08 47.3011 21.8506 47.3011C21.6212 47.3011 21.4682 47.4547 21.4682 47.6851C21.4682 47.9154 21.6212 48.069 21.8506 48.069ZM122.482 55.4404C120.799 56.6689 120.723 56.6689 121.564 55.0564C122.788 52.8297 122.329 52.9832 119.347 56.1314C117.894 57.5903 116.288 58.8189 115.676 58.8189C115.141 58.8189 114.835 59.126 115.064 59.51C115.294 59.8171 114.988 60.8153 114.376 61.5832C113.611 62.6581 113.306 62.7349 113.229 61.9671C113.229 61.276 112.312 61.8903 111.012 63.3492C109.1 65.4992 108.947 66.1135 109.635 67.9563C110.247 69.7224 110.094 70.3366 108.335 72.1795C105.965 74.7902 105.812 75.7116 107.876 75.1741C108.718 74.9437 109.406 75.1741 109.406 75.6348C109.406 76.9402 113 76.633 113.535 75.3277C113.764 74.7134 114.453 74.4062 115.064 74.6366C116.211 75.0973 118.123 72.4866 117.282 71.5652C117.052 71.3349 117.511 71.1045 118.352 71.1045C119.27 71.1045 120.188 70.567 120.417 69.8759C121.105 68.1867 121.029 67.8795 120.035 68.4938C119.576 68.7242 119.805 67.8795 120.417 66.5742C121.105 65.2688 121.87 64.1938 122.099 64.1938C122.252 64.1938 122.099 64.8849 121.641 65.8063C120.646 67.5724 120.876 68.2635 122.023 67.4188C123.476 66.4206 124.929 62.2742 125.235 58.2046C125.54 53.9047 125.234 53.5207 122.482 55.4404ZM21.8506 64.9617C22.08 64.9617 22.2329 64.8081 22.2329 64.5778C22.2329 64.3474 22.08 64.1938 21.8506 64.1938C21.6212 64.1938 21.4682 64.3474 21.4682 64.5778C21.4682 64.8081 21.6212 64.9617 21.8506 64.9617ZM12.6745 107.961C12.9039 107.961 13.0568 107.808 13.0568 107.577C13.0568 107.347 12.9039 107.193 12.6745 107.193C12.4451 107.193 12.2921 107.347 12.2921 107.577C12.2921 107.808 12.4451 107.961 12.6745 107.961ZM39.8204 130.997C39.8204 131.534 40.0498 131.765 40.3557 131.534C40.5851 131.227 40.5851 130.766 40.3557 130.459C40.0498 130.229 39.8204 130.459 39.8204 130.997Z" fill="#FF8D28"/>
<path d="M40.3557 131.534C40.0498 131.765 39.8204 131.534 39.8204 130.997C39.8204 130.459 40.0498 130.229 40.3557 130.459C40.5851 130.766 40.5851 131.227 40.3557 131.534Z" fill="#FF8D28"/>
<path d="M13.0568 107.577C13.0568 107.808 12.9039 107.961 12.6745 107.961C12.4451 107.961 12.2921 107.808 12.2921 107.577C12.2921 107.347 12.4451 107.193 12.6745 107.193C12.9039 107.193 13.0568 107.347 13.0568 107.577Z" fill="#FF8D28"/>
<path d="M22.2329 64.5778C22.2329 64.8081 22.08 64.9617 21.8506 64.9617C21.6212 64.9617 21.4682 64.8081 21.4682 64.5778C21.4682 64.3474 21.6212 64.1938 21.8506 64.1938C22.08 64.1938 22.2329 64.3474 22.2329 64.5778Z" fill="#FF8D28"/>
<path d="M19.5565 43.4619C19.7859 43.8458 19.8624 44.2298 19.633 44.2298C19.4036 44.2298 19.0213 43.8458 18.7919 43.4619C18.5625 43.0012 18.486 42.6941 18.7154 42.6941C18.9448 42.6941 19.3271 43.0012 19.5565 43.4619Z" fill="#FF8D28"/>
<path d="M22.2329 47.6851C22.2329 47.9154 22.08 48.069 21.8506 48.069C21.6212 48.069 21.4682 47.9154 21.4682 47.6851C21.4682 47.4547 21.6212 47.3011 21.8506 47.3011C22.08 47.3011 22.2329 47.4547 22.2329 47.6851Z" fill="#FF8D28"/>
<path d="M51 93.1813C51 120.925 36.9573 145.928 20.9144 145.928C4.87159 145.928 6.39037 130.972 6.39037 103.228C6.39037 75.4843 -0.31558 38.9277 15.7273 38.9277C31 42.4277 31.2888 86.1484 51 93.1813Z" fill="#FF8D28"/>
<path d="M126.71 56.9277C126.71 65.212 112.747 80.4277 109.71 80.4277C106.672 80.4277 104.21 73.712 104.21 65.4277C104.21 57.1435 123.672 50.4277 126.71 50.4277C129.747 50.4277 130.5 45.9277 126.71 56.9277Z" fill="#FF8D28"/>
</svg>
